# xmcd
#
# Track frame offsets: 
#        150
#        29249
#        52635
#        74208
#        108080
#        127981
#        146685
#        167735
#        199431
#        235295
#        271622
#
# Disc length: 4038 seconds
#
# Revision: 0
# Processed by: cddbd v1.5.2PL0 Copyright (c) Steve Scherf et al.
# Submitted via: ExactAudioCopyFreeDBPlugin 1.0
#
DISCID=a10fc40b
DTITLE=Nona Hendryx - The Heat
DYEAR=1985
DGENRE=R&B
TTITLE0=Revolutionary Dance
TTITLE1=A Girl Like That
TTITLE2=The Heat (Part I)
TTITLE3=I Need Love
TTITLE4=If Looks Could Kill (D.O.A.)
TTITLE5=Rock This House
TTITLE6=The Heat (Part II)
TTITLE7=Time
TTITLE8=I Need Love (Extended Version)
TTITLE9=If Looks Could Kill (D.O.A.) (Killer Club Mix)
TTITLE10=Moving Violations (12" Version)
EXTD=
EXTT0=
EXTT1=
EXTT2=
EXTT3=
EXTT4=
EXTT5=
EXTT6=
EXTT7=
EXTT8=
EXTT9=
EXTT10=
PLAYORDER=
